<svg xmlns="http://www.w3.org/2000/svg" viewBox="0 0 182.93 139.78"><defs><style>.cls-1{fill:#9fbfa3;}.cls-2{fill:#c5d1b4;}.cls-3{fill:#d9e3db;}</style></defs><title>tree_footer_left</title><g id="Layer_2" data-name="Layer 2"><g id="Layer_2-2" data-name="Layer 2"><path class="cls-1" d="M55.64,107a380.71,380.71,0,0,0,61.89,4.77C97.46,103.37,86.58,90.15,74.7,73.83c11.88,3.61,20.14,4,33.48,1.82C90.12,68.86,80.79,60.86,69.82,45c9.19,7.4,18.06,6.43,26.41,6C78.43,39.12,63.28,20.65,57.75,0A89.5,89.5,0,0,1,21.3,51c8.34.45,17.22,1.42,26.41-6-11,15.88-20.3,23.88-38.36,30.67,13.33,2.21,21.59,1.79,33.48-1.82C30.94,90.15,20.07,103.37,0,111.72A380.71,380.71,0,0,0,61.89,107Z"/><path class="cls-2" d="M129.27,118a330.26,330.26,0,0,0,53.66,4.13c-17.4-7.24-26.83-18.7-37.14-32.85,10.31,3.13,17.47,3.49,29,1.58C159.17,85,151.08,78,141.57,64.25c8,6.41,15.66,5.57,22.89,5.18C149,59.17,135.9,43.15,131.1,25.25A77.58,77.58,0,0,1,99.5,69.43c7.23.39,14.93,1.23,22.89-5.18C112.88,78,104.79,85,89.13,90.84c11.57,1.91,18.73,1.55,29-1.58C107.86,103.41,98.43,114.87,81,122.11A330.26,330.26,0,0,0,134.69,118Z"/><path class="cls-3" d="M100.55,136.19A285,285,0,0,0,147,139.77c-15.07-6.27-23.24-16.2-32.16-28.45,8.92,2.71,15.13,3,25.14,1.36-13.56-5.1-20.57-11.11-28.81-23,6.91,5.55,13.57,4.82,19.84,4.49-13.37-8.89-24.75-22.77-28.9-38.28A67.22,67.22,0,0,1,74.76,94.14c6.27.33,12.93,1.06,19.83-4.49-8.23,11.92-15.24,17.93-28.81,23,10,1.66,16.22,1.35,25.15-1.36C82,123.57,73.84,133.5,58.76,139.77a284.8,284.8,0,0,0,46.48-3.58Z"/></g></g></svg>